<?xml version="1.0" encoding="utf-8"?>
<!-- Generator: Adobe Illustrator 19.2.0, SVG Export Plug-In . SVG Version: 6.00 Build 0)  -->
<svg version="1.1" id="Camada_1" xmlns="http://www.w3.org/2000/svg" xmlns:xlink="http://www.w3.org/1999/xlink" x="0px" y="0px"
	 viewBox="0 0 841.9 595.3" style="enable-background:new 0 0 841.9 595.3;" xml:space="preserve">
<style type="text/css">
	.st0{fill:#868686;}
	.st1{font-family:'Exotic350BT-DemiBold';}
	.st2{font-size:37.9877px;}
	.st3{fill:#008D36;}
	.st4{fill:#006633;}
	.st5{fill:#E4BD00;}
	.st6{fill:#FFDD00;}
	.st7{fill:#575756;}
</style>
<g>
	<text transform="matrix(1 0 0 1 321.8896 350.7295)"><tspan x="0" y="0" class="st0 st1 st2">Econom</tspan><tspan x="113.1" y="0" class="st3 st1 st2">ea$y</tspan></text>
	<g>
		<polygon class="st3" points="438.9,239.9 428.8,238.2 415.4,311.5 		"/>
		<polygon class="st4" points="431.8,238.6 428.3,238.2 415.4,311.5 		"/>
		<polygon class="st3" points="428.8,236.2 417.6,235.3 415.4,311.5 		"/>
		<polygon class="st4" points="420.7,235.8 417.6,235.3 415.4,311.5 		"/>
		<polygon class="st3" points="418,233.6 408.9,234.8 415.4,311.5 		"/>
		<polygon class="st4" points="411.7,234.5 408.4,234.8 415.4,311.5 		"/>
		<polygon class="st3" points="408.5,233.8 399,236 415.4,311.5 		"/>
		<polygon class="st4" points="402.2,235.1 399,236 415.4,311.5 		"/>
		<polygon class="st3" points="398.7,234.3 390.2,237.9 415.4,311.5 		"/>
		<polygon class="st4" points="393.3,236.6 390.2,237.9 415.4,311.5 		"/>
		<polygon class="st3" points="389.5,236 381.8,240.3 415.4,311.5 		"/>
		<polygon class="st4" points="384.6,238.7 381.8,240.3 415.4,311.5 		"/>
		<polygon class="st3" points="381.4,239.5 373.4,245.3 415.4,311.5 		"/>
		<polygon class="st4" points="376.5,243 373.4,245.3 415.4,311.5 		"/>
		<polygon class="st3" points="372.9,244.5 366.7,250.6 415.4,311.5 		"/>
		<polygon class="st4" points="369.3,248.1 366.7,250.6 415.4,311.5 		"/>
		<polygon class="st3" points="366.1,249.7 359,259.5 415.4,311.5 		"/>
		<polygon class="st4" points="361.2,256.4 358.6,259.9 415.4,311.5 		"/>
		<polygon class="st3" points="358.1,259.3 354.4,268.2 414.9,311.5 		"/>
		<polygon class="st4" points="355.9,264.7 354.4,268.2 414.9,311.5 		"/>
		<polygon class="st3" points="354,267.3 350.1,278 415.1,311.8 		"/>
		<polygon class="st4" points="351.3,274.5 350.1,278 415.1,311.8 		"/>
		<polygon class="st3" points="349.5,277.6 345.6,289 415.1,311.8 		"/>
		<polygon class="st4" points="347.2,284.8 345.6,289 415.1,311.8 		"/>
		<polygon class="st3" points="347.7,283 349.1,312.3 415.3,312.8 413.4,283.4 		"/>
		<polygon class="st4" points="348.9,309.4 349.1,312.3 415.3,312.8 415.2,312 		"/>
		<polygon class="st5" points="387.8,312.6 379.8,312.6 379.9,283.1 386.5,283.1 		"/>
		
			<rect x="367.7" y="294.6" transform="matrix(3.934346e-003 -1 1 3.934346e-003 83.0242 679.0499)" class="st6" width="29.4" height="6.6"/>
	</g>
	<path class="st7" d="M407,330.3l-45.9-0.2l2.5-3.8l42.8,0.2c8.9-2.9,7.4-13.9,7.3-14.4l3.7-0.6c0.8,5.2-0.4,15.7-10.2,18.7
		L407,330.3z"/>
	<path class="st0" d="M407,330.3l-45.9-0.2l2.5-2.3l40.4,1.5c11.9-0.7,11.9-13.4,11.8-13.9l1.6-3.8c0.8,5.2-0.4,15.7-10.2,18.7
		L407,330.3z"/>
	<g>
		<polygon class="st7" points="416.6,315.4 347.4,315.1 349.6,312 414.4,312.3 434.3,252.6 439.5,252.6 441.3,252.7 447.3,255.8 
			436.6,255.8 		"/>
	</g>
	<g>
		<g>
			<polygon class="st0" points="417.6,316.1 346.9,315.8 348.4,313.7 416.6,314.8 436.1,255.1 443.9,254 448.8,256.4 437.5,256.5 
							"/>
		</g>
	</g>
</g>
</svg>
